<svg width="62" height="62" viewBox="0 0 62 62" fill="none" xmlns="http://www.w3.org/2000/svg">
<path d="M45.1824 24.8L14.4666 43.3225C12.6583 44.4075 10.3333 43.1158 10.3333 40.9975V20.3308C10.3333 11.315 20.0724 5.68334 27.8999 10.1783L39.7574 16.9983L45.1566 20.0983C46.9391 21.1575 46.9649 23.7408 45.1824 24.8Z" fill="white"/>
<path d="M46.7324 39.9384L36.2699 45.9834L25.8333 52.0025C22.0874 54.1467 17.8508 53.7075 14.7766 51.5375C13.2783 50.5042 13.4591 48.205 15.0349 47.275L47.8691 27.59C49.4191 26.66 51.4599 27.5384 51.7441 29.3209C52.3899 33.325 50.7366 37.6392 46.7324 39.9384Z" fill="white"/>
</svg>
